<svg xmlns="http://www.w3.org/2000/svg" viewBox="0 0 64 64" width="64" height="64">
		<!-- Bigger, centered fluffy cloud -->
	<svg xmlns="http://www.w3.org/2000/svg" viewBox="0 0 768 768">
		<path d="M192 576q-53 0-90.5-37.5T64 448q0-52 36.5-89T188 322q-4-18-4-34 0-80 56-136t136-56q79 0 135 56t56 136q0 16-4 34 52 15 88 52t36 90q0 53-37.5 90.5T576 576H192z" fill="#7fb3e7"/>
		<line x1="250" y1="600" x2="300" y2="700" stroke="#00bfff" stroke-width="40"/>
		<line x1="350" y1="600" x2="400" y2="700" stroke="#00bfff" stroke-width="40"/>
		<line x1="450" y1="600" x2="500" y2="700" stroke="#00bfff" stroke-width="40"/>
	</svg>
</svg>
